<?xml version="1.0" standalone="no"?>
<!DOCTYPE svg PUBLIC "-//W3C//DTD SVG 20010904//EN"
 "http://www.w3.org/TR/2001/REC-SVG-20010904/DTD/svg10.dtd">
<svg version="1.0" xmlns="http://www.w3.org/2000/svg"
 width="700.000000pt" height="700.000000pt" viewBox="0 0 700.000000 700.000000"
 preserveAspectRatio="xMidYMid meet">
<metadata>
Created by potrace 1.11, written by Peter Selinger 2001-2013
</metadata>
<g transform="translate(0.000000,700.000000) scale(0.100000,-0.100000)"
fill="#000000" stroke="none">
<path d="M6363 6383 l0 -553 109 0 108 0 0 554 0 554 -108 -1 -109 -1 0 -553z"/>
<path d="M87 6920 c-9 -4 -12 -123 -11 -535 1 -291 2 -536 3 -542 1 -10 29
-13 105 -13 74 0 105 4 108 13 2 6 4 105 3 220 l-1 207 31 0 c16 1 131 2 255
3 220 2 226 3 281 28 128 60 192 162 193 304 0 160 -86 269 -241 306 -48 11
-700 20 -726 9z m712 -237 c26 -28 31 -41 31 -82 0 -60 -26 -97 -78 -110 -20
-5 -132 -9 -247 -9 l-211 0 2 112 c1 61 2 115 3 119 0 5 106 7 235 5 l234 -3
31 -32z"/>
<path d="M3211 6388 c-148 -299 -267 -545 -265 -547 3 -3 169 -5 216 -2 12 1
38 43 82 136 l66 135 249 0 249 0 66 -135 c60 -124 67 -135 93 -136 31 -1 194
-1 204 0 4 1 -45 106 -108 234 -64 127 -184 373 -269 545 l-153 312 -81 0 -81
0 -268 -542z m426 72 c37 -74 69 -138 71 -141 1 -3 -63 -5 -143 -5 -80 0 -145
2 -145 3 0 10 142 284 145 281 2 -2 35 -64 72 -138z"/>
<path d="M90 4080 l-55 -5 0 -542 0 -543 367 0 c236 0 386 4 420 11 112 24
199 93 242 191 22 49 25 69 23 150 -3 105 -26 164 -90 228 l-35 35 29 50 c26
46 28 58 26 140 -2 73 -7 99 -27 139 -42 83 -130 133 -252 142 -96 8 -577 10
-648 4z m685 -230 c22 -23 33 -70 24 -105 -16 -57 -30 -59 -301 -61 l-248 -2
0 95 0 94 255 -3 c213 -3 257 -5 270 -18z m14 -383 c52 -18 74 -56 75 -124 0
-63 -20 -109 -58 -134 -17 -11 -77 -14 -288 -15 l-268 -2 0 144 0 144 253 -1
c168 0 263 -4 286 -12z"/>
<path d="M6050 4080 l-45 -5 0 -542 0 -543 106 0 c77 0 108 4 111 13 2 6 4
155 3 330 -1 174 2 317 6 317 4 0 12 -6 16 -14 8 -13 92 -112 123 -145 9 -9
70 -79 135 -156 66 -77 122 -142 125 -145 5 -4 44 -49 159 -182 12 -14 31 -18
82 -18 l66 0 0 545 0 545 -34 1 c-18 0 -55 0 -83 0 -27 0 -61 0 -75 0 l-25 -1
0 -335 0 -336 -76 88 c-42 48 -100 115 -128 147 -62 73 -129 151 -165 191 -14
16 -57 66 -94 110 -127 149 -121 145 -207 135z"/>
<path d="M517 1204 c-1 -2 -24 -5 -50 -8 -281 -34 -481 -294 -463 -601 18
-308 235 -520 542 -529 188 -6 351 64 460 196 86 104 125 218 126 363 1 276
-168 503 -417 560 -59 14 -190 26 -198 19z m148 -216 c160 -49 256 -201 242
-386 -14 -185 -155 -324 -331 -325 -86 -1 -137 13 -199 54 -141 93 -192 302
-116 475 38 86 128 160 224 185 39 10 142 8 180 -3z"/>
<path d="M2990 1183 c0 -1 19 -26 43 -55 24 -29 92 -114 152 -188 60 -74 140
-173 177 -219 l68 -83 -107 -132 c-59 -72 -110 -133 -113 -136 -13 -11 -220
-269 -220 -274 0 -3 57 -6 128 -6 109 0 130 3 142 17 9 10 53 65 100 122 47
58 95 116 107 129 12 13 37 44 55 68 18 24 36 44 39 44 4 0 42 -43 85 -96 44
-54 114 -139 157 -190 l78 -94 136 0 c149 0 141 -5 91 55 -9 11 -79 97 -154
190 -76 94 -143 175 -149 182 -5 7 -15 18 -20 25 -6 7 -27 33 -46 58 l-37 45
115 140 c63 77 124 151 136 165 78 91 187 230 180 231 -24 3 -264 1 -267 -2
-9 -13 -124 -157 -138 -174 -9 -11 -46 -58 -83 -105 -36 -47 -70 -85 -75 -85
-5 0 -43 43 -85 95 -42 52 -87 106 -99 120 -11 14 -43 53 -70 88 -31 40 -57
62 -70 63 -74 2 -256 4 -256 2z"/>
<path d="M5979 1182 l-36 -3 0 -100 0 -99 208 0 209 0 1 -22 c0 -13 1 -213 2
-446 l0 -422 109 0 108 0 0 445 0 445 210 0 210 0 0 103 0 102 -492 0 c-271 0
-509 -1 -529 -3z"/>
</g>
</svg>
